<mxfile host="app.diagrams.net" agent="Mozilla/5.0 (Windows NT 10.0; Win64; x64) AppleWebKit/537.36 (KHTML, like Gecko) Chrome/131.0.0.0 Safari/537.36" version="26.0.7" pages="2">
  <diagram name="Page-1" id="ijlf4zvdkOlsfLd_vSVo">
    <mxGraphModel dx="1885" dy="1651" grid="1" gridSize="10" guides="1" tooltips="1" connect="1" arrows="0" fold="1" page="1" pageScale="1" pageWidth="850" pageHeight="1100" math="0" shadow="0">
      <root>
        <mxCell id="0" />
        <mxCell id="1" parent="0" />
        <mxCell id="f_3bTo-v71N_Pe8UlLd5-6" value="Charity-Item" style="whiteSpace=wrap;html=1;align=center;" vertex="1" parent="1">
          <mxGeometry y="-40" width="100" height="40" as="geometry" />
        </mxCell>
        <mxCell id="f_3bTo-v71N_Pe8UlLd5-15" value="&lt;div style=&quot;background-color: rgb(255, 255, 254); font-family: Consolas, &amp;quot;Courier New&amp;quot;, monospace; font-size: 14px; line-height: 19px; white-space: pre;&quot;&gt;&lt;span style=&quot;color: #a22889;&quot;&gt;charity_id&lt;/span&gt;&lt;/div&gt;" style="ellipse;whiteSpace=wrap;html=1;align=center;" vertex="1" parent="1">
          <mxGeometry x="80" y="-100" width="100" height="40" as="geometry" />
        </mxCell>
        <mxCell id="f_3bTo-v71N_Pe8UlLd5-16" value="&lt;div style=&quot;background-color: rgb(255, 255, 254); font-family: Consolas, &amp;quot;Courier New&amp;quot;, monospace; font-size: 14px; line-height: 19px; white-space: pre;&quot;&gt;&lt;span style=&quot;color: #a22889;&quot;&gt;item_id&lt;/span&gt;&lt;/div&gt;" style="ellipse;whiteSpace=wrap;html=1;align=center;fontStyle=4;" vertex="1" parent="1">
          <mxGeometry x="-80" y="-150" width="100" height="40" as="geometry" />
        </mxCell>
        <mxCell id="f_3bTo-v71N_Pe8UlLd5-18" value="" style="endArrow=none;html=1;rounded=0;entryX=0;entryY=0.5;entryDx=0;entryDy=0;exitX=0.5;exitY=1;exitDx=0;exitDy=0;exitPerimeter=0;" edge="1" parent="1" source="f_3bTo-v71N_Pe8UlLd5-22" target="f_3bTo-v71N_Pe8UlLd5-6">
          <mxGeometry relative="1" as="geometry">
            <mxPoint x="-80" y="-100" as="sourcePoint" />
            <mxPoint x="20" y="10" as="targetPoint" />
          </mxGeometry>
        </mxCell>
        <mxCell id="f_3bTo-v71N_Pe8UlLd5-19" value="" style="endArrow=none;html=1;rounded=0;exitX=0.63;exitY=1.05;exitDx=0;exitDy=0;exitPerimeter=0;entryX=0.08;entryY=0.025;entryDx=0;entryDy=0;entryPerimeter=0;" edge="1" parent="1" source="f_3bTo-v71N_Pe8UlLd5-16" target="f_3bTo-v71N_Pe8UlLd5-6">
          <mxGeometry relative="1" as="geometry">
            <mxPoint x="-160" y="-10" as="sourcePoint" />
            <mxPoint x="-27" y="-10" as="targetPoint" />
          </mxGeometry>
        </mxCell>
        <mxCell id="f_3bTo-v71N_Pe8UlLd5-20" value="" style="endArrow=none;html=1;rounded=0;entryX=0.4;entryY=0.975;entryDx=0;entryDy=0;entryPerimeter=0;exitX=0.92;exitY=0.075;exitDx=0;exitDy=0;exitPerimeter=0;" edge="1" parent="1" source="f_3bTo-v71N_Pe8UlLd5-6" target="f_3bTo-v71N_Pe8UlLd5-15">
          <mxGeometry relative="1" as="geometry">
            <mxPoint x="110" y="-30" as="sourcePoint" />
            <mxPoint x="270" y="-30" as="targetPoint" />
            <Array as="points" />
          </mxGeometry>
        </mxCell>
        <mxCell id="f_3bTo-v71N_Pe8UlLd5-21" value="&lt;div style=&quot;background-color: rgb(255, 255, 254); font-family: Consolas, &amp;quot;Courier New&amp;quot;, monospace; font-size: 14px; line-height: 19px; white-space: pre;&quot;&gt;&lt;span style=&quot;color: #a22889;&quot;&gt;description&lt;/span&gt;&lt;/div&gt;" style="ellipse;whiteSpace=wrap;html=1;align=center;" vertex="1" parent="1">
          <mxGeometry x="10" y="-130" width="100" height="40" as="geometry" />
        </mxCell>
        <mxCell id="f_3bTo-v71N_Pe8UlLd5-22" value="&lt;div style=&quot;background-color: rgb(255, 255, 254); font-family: Consolas, &amp;quot;Courier New&amp;quot;, monospace; font-size: 14px; line-height: 19px; white-space: pre;&quot;&gt;&lt;span style=&quot;color: #a22889;&quot;&gt;name&lt;/span&gt;&lt;/div&gt;" style="ellipse;whiteSpace=wrap;html=1;align=center;" vertex="1" parent="1">
          <mxGeometry x="-80" y="-100" width="100" height="40" as="geometry" />
        </mxCell>
        <mxCell id="f_3bTo-v71N_Pe8UlLd5-23" value="Entity" style="whiteSpace=wrap;html=1;align=center;" vertex="1" parent="1">
          <mxGeometry x="900" y="390" width="100" height="40" as="geometry" />
        </mxCell>
        <mxCell id="f_3bTo-v71N_Pe8UlLd5-26" value="Attribute" style="ellipse;whiteSpace=wrap;html=1;align=center;" vertex="1" parent="1">
          <mxGeometry x="1010" y="330" width="100" height="40" as="geometry" />
        </mxCell>
        <mxCell id="f_3bTo-v71N_Pe8UlLd5-27" value="Attribute" style="ellipse;whiteSpace=wrap;html=1;align=center;fontStyle=4;" vertex="1" parent="1">
          <mxGeometry x="810" y="310" width="100" height="40" as="geometry" />
        </mxCell>
        <mxCell id="f_3bTo-v71N_Pe8UlLd5-28" value="" style="endArrow=none;html=1;rounded=0;entryX=0;entryY=0.5;entryDx=0;entryDy=0;exitX=1;exitY=0.5;exitDx=0;exitDy=0;exitPerimeter=0;" edge="1" parent="1" source="f_3bTo-v71N_Pe8UlLd5-32" target="f_3bTo-v71N_Pe8UlLd5-23">
          <mxGeometry relative="1" as="geometry">
            <mxPoint x="820" y="390" as="sourcePoint" />
            <mxPoint x="890" y="450" as="targetPoint" />
          </mxGeometry>
        </mxCell>
        <mxCell id="f_3bTo-v71N_Pe8UlLd5-29" value="" style="endArrow=none;html=1;rounded=0;exitX=0.63;exitY=1.05;exitDx=0;exitDy=0;exitPerimeter=0;entryX=0.08;entryY=0.025;entryDx=0;entryDy=0;entryPerimeter=0;" edge="1" parent="1" source="f_3bTo-v71N_Pe8UlLd5-27" target="f_3bTo-v71N_Pe8UlLd5-23">
          <mxGeometry relative="1" as="geometry">
            <mxPoint x="480" y="480" as="sourcePoint" />
            <mxPoint x="613" y="480" as="targetPoint" />
          </mxGeometry>
        </mxCell>
        <mxCell id="f_3bTo-v71N_Pe8UlLd5-30" value="" style="endArrow=none;html=1;rounded=0;exitX=0.91;exitY=0.075;exitDx=0;exitDy=0;exitPerimeter=0;" edge="1" parent="1" source="f_3bTo-v71N_Pe8UlLd5-23" target="f_3bTo-v71N_Pe8UlLd5-26">
          <mxGeometry relative="1" as="geometry">
            <mxPoint x="780" y="440" as="sourcePoint" />
            <mxPoint x="780" y="439" as="targetPoint" />
            <Array as="points" />
          </mxGeometry>
        </mxCell>
        <mxCell id="f_3bTo-v71N_Pe8UlLd5-31" value="Attribute" style="ellipse;whiteSpace=wrap;html=1;align=center;" vertex="1" parent="1">
          <mxGeometry x="910" y="310" width="100" height="40" as="geometry" />
        </mxCell>
        <mxCell id="f_3bTo-v71N_Pe8UlLd5-32" value="Attribute" style="ellipse;whiteSpace=wrap;html=1;align=center;" vertex="1" parent="1">
          <mxGeometry x="730" y="350" width="100" height="40" as="geometry" />
        </mxCell>
        <mxCell id="f_3bTo-v71N_Pe8UlLd5-44" value="Product" style="whiteSpace=wrap;html=1;align=center;" vertex="1" parent="1">
          <mxGeometry x="20" y="210" width="100" height="40" as="geometry" />
        </mxCell>
        <mxCell id="f_3bTo-v71N_Pe8UlLd5-47" value="&lt;div style=&quot;background-color: rgb(255, 255, 254); font-family: Consolas, &amp;quot;Courier New&amp;quot;, monospace; font-size: 14px; line-height: 19px; white-space: pre;&quot;&gt;&lt;span style=&quot;color: #a22889;&quot;&gt;business_id&lt;/span&gt;&lt;/div&gt;" style="ellipse;whiteSpace=wrap;html=1;align=center;" vertex="1" parent="1">
          <mxGeometry x="70" y="150" width="100" height="40" as="geometry" />
        </mxCell>
        <mxCell id="f_3bTo-v71N_Pe8UlLd5-48" value="&lt;div style=&quot;background-color: rgb(255, 255, 254); font-family: Consolas, &amp;quot;Courier New&amp;quot;, monospace; font-size: 14px; line-height: 19px; white-space: pre;&quot;&gt;&lt;span style=&quot;color: #a22889;&quot;&gt;product_id&lt;/span&gt;&lt;/div&gt;" style="ellipse;whiteSpace=wrap;html=1;align=center;fontStyle=4;" vertex="1" parent="1">
          <mxGeometry x="-120" y="130" width="100" height="40" as="geometry" />
        </mxCell>
        <mxCell id="f_3bTo-v71N_Pe8UlLd5-50" value="" style="endArrow=none;html=1;rounded=0;exitX=0.63;exitY=1.05;exitDx=0;exitDy=0;exitPerimeter=0;entryX=0.08;entryY=0.025;entryDx=0;entryDy=0;entryPerimeter=0;" edge="1" parent="1" source="f_3bTo-v71N_Pe8UlLd5-48" target="f_3bTo-v71N_Pe8UlLd5-44">
          <mxGeometry relative="1" as="geometry">
            <mxPoint x="-160" y="250" as="sourcePoint" />
            <mxPoint x="-27" y="250" as="targetPoint" />
          </mxGeometry>
        </mxCell>
        <mxCell id="f_3bTo-v71N_Pe8UlLd5-51" value="" style="endArrow=none;html=1;rounded=0;exitX=0.91;exitY=0.075;exitDx=0;exitDy=0;exitPerimeter=0;" edge="1" parent="1" source="f_3bTo-v71N_Pe8UlLd5-44" target="f_3bTo-v71N_Pe8UlLd5-47">
          <mxGeometry relative="1" as="geometry">
            <mxPoint x="140" y="210" as="sourcePoint" />
            <mxPoint x="140" y="209" as="targetPoint" />
            <Array as="points" />
          </mxGeometry>
        </mxCell>
        <mxCell id="f_3bTo-v71N_Pe8UlLd5-52" value="&lt;div style=&quot;background-color: rgb(255, 255, 254); font-family: Consolas, &amp;quot;Courier New&amp;quot;, monospace; font-size: 14px; line-height: 19px; white-space: pre;&quot;&gt;&lt;span style=&quot;color: #a22889;&quot;&gt;price&lt;/span&gt;&lt;/div&gt;" style="ellipse;whiteSpace=wrap;html=1;align=center;" vertex="1" parent="1">
          <mxGeometry x="-20" y="120" width="100" height="40" as="geometry" />
        </mxCell>
        <mxCell id="f_3bTo-v71N_Pe8UlLd5-66" value="" style="endArrow=none;html=1;rounded=0;exitX=0.5;exitY=0;exitDx=0;exitDy=0;entryX=0.43;entryY=0.9;entryDx=0;entryDy=0;entryPerimeter=0;" edge="1" parent="1" source="f_3bTo-v71N_Pe8UlLd5-6" target="f_3bTo-v71N_Pe8UlLd5-21">
          <mxGeometry relative="1" as="geometry">
            <mxPoint x="140" y="10" as="sourcePoint" />
            <mxPoint x="300" y="10" as="targetPoint" />
          </mxGeometry>
        </mxCell>
        <mxCell id="f_3bTo-v71N_Pe8UlLd5-67" value="" style="endArrow=none;html=1;rounded=0;entryX=0.5;entryY=0;entryDx=0;entryDy=0;exitX=0.5;exitY=1;exitDx=0;exitDy=0;" edge="1" parent="1" source="f_3bTo-v71N_Pe8UlLd5-31" target="f_3bTo-v71N_Pe8UlLd5-23">
          <mxGeometry relative="1" as="geometry">
            <mxPoint x="420" y="530" as="sourcePoint" />
            <mxPoint x="580" y="530" as="targetPoint" />
          </mxGeometry>
        </mxCell>
        <mxCell id="f_3bTo-v71N_Pe8UlLd5-68" value="" style="endArrow=none;html=1;rounded=0;exitX=0;exitY=0.25;exitDx=0;exitDy=0;" edge="1" parent="1" source="f_3bTo-v71N_Pe8UlLd5-44" target="f_3bTo-v71N_Pe8UlLd5-53">
          <mxGeometry relative="1" as="geometry">
            <mxPoint x="-50" y="210" as="sourcePoint" />
            <mxPoint x="20" y="230" as="targetPoint" />
          </mxGeometry>
        </mxCell>
        <mxCell id="f_3bTo-v71N_Pe8UlLd5-53" value="&lt;div style=&quot;background-color: rgb(255, 255, 254); font-family: Consolas, &amp;quot;Courier New&amp;quot;, monospace; font-size: 14px; line-height: 19px; white-space: pre;&quot;&gt;&lt;span style=&quot;color: #a22889;&quot;&gt;name&lt;/span&gt;&lt;/div&gt;" style="ellipse;whiteSpace=wrap;html=1;align=center;" vertex="1" parent="1">
          <mxGeometry x="-180" y="170" width="100" height="40" as="geometry" />
        </mxCell>
        <mxCell id="f_3bTo-v71N_Pe8UlLd5-69" value="" style="endArrow=none;html=1;rounded=0;entryX=0.7;entryY=1;entryDx=0;entryDy=0;entryPerimeter=0;exitX=0.43;exitY=-0.1;exitDx=0;exitDy=0;exitPerimeter=0;" edge="1" parent="1" source="f_3bTo-v71N_Pe8UlLd5-44" target="f_3bTo-v71N_Pe8UlLd5-52">
          <mxGeometry relative="1" as="geometry">
            <mxPoint x="180" y="70" as="sourcePoint" />
            <mxPoint x="340" y="70" as="targetPoint" />
          </mxGeometry>
        </mxCell>
        <mxCell id="f_3bTo-v71N_Pe8UlLd5-70" value="Transaction" style="whiteSpace=wrap;html=1;align=center;" vertex="1" parent="1">
          <mxGeometry x="490" y="170" width="100" height="40" as="geometry" />
        </mxCell>
        <mxCell id="f_3bTo-v71N_Pe8UlLd5-71" value="Attribute" style="ellipse;whiteSpace=wrap;html=1;align=center;" vertex="1" parent="1">
          <mxGeometry x="600" y="110" width="100" height="40" as="geometry" />
        </mxCell>
        <mxCell id="f_3bTo-v71N_Pe8UlLd5-72" value="Attribute" style="ellipse;whiteSpace=wrap;html=1;align=center;fontStyle=4;" vertex="1" parent="1">
          <mxGeometry x="400" y="90" width="100" height="40" as="geometry" />
        </mxCell>
        <mxCell id="f_3bTo-v71N_Pe8UlLd5-73" value="" style="endArrow=none;html=1;rounded=0;entryX=0;entryY=0.5;entryDx=0;entryDy=0;exitX=0.5;exitY=1;exitDx=0;exitDy=0;exitPerimeter=0;" edge="1" parent="1" target="f_3bTo-v71N_Pe8UlLd5-70">
          <mxGeometry relative="1" as="geometry">
            <mxPoint x="410" y="170" as="sourcePoint" />
            <mxPoint x="480" y="230" as="targetPoint" />
          </mxGeometry>
        </mxCell>
        <mxCell id="f_3bTo-v71N_Pe8UlLd5-74" value="" style="endArrow=none;html=1;rounded=0;exitX=0.63;exitY=1.05;exitDx=0;exitDy=0;exitPerimeter=0;entryX=0.08;entryY=0.025;entryDx=0;entryDy=0;entryPerimeter=0;" edge="1" parent="1" source="f_3bTo-v71N_Pe8UlLd5-72" target="f_3bTo-v71N_Pe8UlLd5-70">
          <mxGeometry relative="1" as="geometry">
            <mxPoint x="300" y="210" as="sourcePoint" />
            <mxPoint x="433" y="210" as="targetPoint" />
          </mxGeometry>
        </mxCell>
        <mxCell id="f_3bTo-v71N_Pe8UlLd5-75" value="" style="endArrow=none;html=1;rounded=0;exitX=0.91;exitY=0.075;exitDx=0;exitDy=0;exitPerimeter=0;" edge="1" parent="1" source="f_3bTo-v71N_Pe8UlLd5-70" target="f_3bTo-v71N_Pe8UlLd5-71">
          <mxGeometry relative="1" as="geometry">
            <mxPoint x="600" y="170" as="sourcePoint" />
            <mxPoint x="600" y="169" as="targetPoint" />
            <Array as="points" />
          </mxGeometry>
        </mxCell>
        <mxCell id="f_3bTo-v71N_Pe8UlLd5-76" value="Attribute" style="ellipse;whiteSpace=wrap;html=1;align=center;" vertex="1" parent="1">
          <mxGeometry x="500" y="90" width="100" height="40" as="geometry" />
        </mxCell>
        <mxCell id="f_3bTo-v71N_Pe8UlLd5-77" value="Attribute" style="ellipse;whiteSpace=wrap;html=1;align=center;" vertex="1" parent="1">
          <mxGeometry x="350" y="130" width="100" height="40" as="geometry" />
        </mxCell>
        <mxCell id="f_3bTo-v71N_Pe8UlLd5-78" value="" style="endArrow=none;html=1;rounded=0;entryX=0.5;entryY=0;entryDx=0;entryDy=0;exitX=0.5;exitY=1;exitDx=0;exitDy=0;" edge="1" parent="1" source="f_3bTo-v71N_Pe8UlLd5-76" target="f_3bTo-v71N_Pe8UlLd5-70">
          <mxGeometry relative="1" as="geometry">
            <mxPoint x="240" y="260" as="sourcePoint" />
            <mxPoint x="400" y="260" as="targetPoint" />
          </mxGeometry>
        </mxCell>
        <mxCell id="f_3bTo-v71N_Pe8UlLd5-88" value="Business" style="whiteSpace=wrap;html=1;align=center;" vertex="1" parent="1">
          <mxGeometry x="70" y="470" width="100" height="40" as="geometry" />
        </mxCell>
        <mxCell id="f_3bTo-v71N_Pe8UlLd5-89" value="Attribute" style="ellipse;whiteSpace=wrap;html=1;align=center;" vertex="1" parent="1">
          <mxGeometry x="180" y="410" width="100" height="40" as="geometry" />
        </mxCell>
        <mxCell id="f_3bTo-v71N_Pe8UlLd5-90" value="Attribute" style="ellipse;whiteSpace=wrap;html=1;align=center;fontStyle=4;" vertex="1" parent="1">
          <mxGeometry x="-20" y="390" width="100" height="40" as="geometry" />
        </mxCell>
        <mxCell id="f_3bTo-v71N_Pe8UlLd5-91" value="" style="endArrow=none;html=1;rounded=0;entryX=0;entryY=0.5;entryDx=0;entryDy=0;exitX=0.5;exitY=1;exitDx=0;exitDy=0;exitPerimeter=0;" edge="1" parent="1" target="f_3bTo-v71N_Pe8UlLd5-88">
          <mxGeometry relative="1" as="geometry">
            <mxPoint x="-10" y="470" as="sourcePoint" />
            <mxPoint x="60" y="530" as="targetPoint" />
          </mxGeometry>
        </mxCell>
        <mxCell id="f_3bTo-v71N_Pe8UlLd5-92" value="" style="endArrow=none;html=1;rounded=0;exitX=0.63;exitY=1.05;exitDx=0;exitDy=0;exitPerimeter=0;entryX=0.08;entryY=0.025;entryDx=0;entryDy=0;entryPerimeter=0;" edge="1" parent="1" source="f_3bTo-v71N_Pe8UlLd5-90" target="f_3bTo-v71N_Pe8UlLd5-88">
          <mxGeometry relative="1" as="geometry">
            <mxPoint x="-120" y="510" as="sourcePoint" />
            <mxPoint x="13" y="510" as="targetPoint" />
          </mxGeometry>
        </mxCell>
        <mxCell id="f_3bTo-v71N_Pe8UlLd5-93" value="" style="endArrow=none;html=1;rounded=0;exitX=0.91;exitY=0.075;exitDx=0;exitDy=0;exitPerimeter=0;" edge="1" parent="1" source="f_3bTo-v71N_Pe8UlLd5-88" target="f_3bTo-v71N_Pe8UlLd5-89">
          <mxGeometry relative="1" as="geometry">
            <mxPoint x="180" y="470" as="sourcePoint" />
            <mxPoint x="180" y="469" as="targetPoint" />
            <Array as="points" />
          </mxGeometry>
        </mxCell>
        <mxCell id="f_3bTo-v71N_Pe8UlLd5-94" value="Attribute" style="ellipse;whiteSpace=wrap;html=1;align=center;" vertex="1" parent="1">
          <mxGeometry x="80" y="390" width="100" height="40" as="geometry" />
        </mxCell>
        <mxCell id="f_3bTo-v71N_Pe8UlLd5-95" value="Attribute" style="ellipse;whiteSpace=wrap;html=1;align=center;" vertex="1" parent="1">
          <mxGeometry x="-70" y="430" width="100" height="40" as="geometry" />
        </mxCell>
        <mxCell id="f_3bTo-v71N_Pe8UlLd5-96" value="" style="endArrow=none;html=1;rounded=0;entryX=0.5;entryY=0;entryDx=0;entryDy=0;exitX=0.5;exitY=1;exitDx=0;exitDy=0;" edge="1" parent="1" source="f_3bTo-v71N_Pe8UlLd5-94" target="f_3bTo-v71N_Pe8UlLd5-88">
          <mxGeometry relative="1" as="geometry">
            <mxPoint x="-180" y="560" as="sourcePoint" />
            <mxPoint x="-20" y="560" as="targetPoint" />
          </mxGeometry>
        </mxCell>
        <mxCell id="f_3bTo-v71N_Pe8UlLd5-97" value="Charity" style="whiteSpace=wrap;html=1;align=center;" vertex="1" parent="1">
          <mxGeometry x="215" y="-230" width="100" height="40" as="geometry" />
        </mxCell>
        <mxCell id="f_3bTo-v71N_Pe8UlLd5-98" value="contact info" style="ellipse;whiteSpace=wrap;html=1;align=center;" vertex="1" parent="1">
          <mxGeometry x="325" y="-290" width="100" height="40" as="geometry" />
        </mxCell>
        <mxCell id="f_3bTo-v71N_Pe8UlLd5-99" value="Charity-id" style="ellipse;whiteSpace=wrap;html=1;align=center;fontStyle=4;" vertex="1" parent="1">
          <mxGeometry x="125" y="-310" width="100" height="40" as="geometry" />
        </mxCell>
        <mxCell id="f_3bTo-v71N_Pe8UlLd5-100" value="" style="endArrow=none;html=1;rounded=0;entryX=0;entryY=0.5;entryDx=0;entryDy=0;exitX=0.5;exitY=1;exitDx=0;exitDy=0;exitPerimeter=0;" edge="1" parent="1" target="f_3bTo-v71N_Pe8UlLd5-97">
          <mxGeometry relative="1" as="geometry">
            <mxPoint x="135" y="-230" as="sourcePoint" />
            <mxPoint x="205" y="-170" as="targetPoint" />
          </mxGeometry>
        </mxCell>
        <mxCell id="f_3bTo-v71N_Pe8UlLd5-101" value="" style="endArrow=none;html=1;rounded=0;exitX=0.63;exitY=1.05;exitDx=0;exitDy=0;exitPerimeter=0;entryX=0.08;entryY=0.025;entryDx=0;entryDy=0;entryPerimeter=0;" edge="1" parent="1" source="f_3bTo-v71N_Pe8UlLd5-99" target="f_3bTo-v71N_Pe8UlLd5-97">
          <mxGeometry relative="1" as="geometry">
            <mxPoint x="25" y="-190" as="sourcePoint" />
            <mxPoint x="158" y="-190" as="targetPoint" />
          </mxGeometry>
        </mxCell>
        <mxCell id="f_3bTo-v71N_Pe8UlLd5-102" value="" style="endArrow=none;html=1;rounded=0;exitX=0.91;exitY=0.075;exitDx=0;exitDy=0;exitPerimeter=0;" edge="1" parent="1" source="f_3bTo-v71N_Pe8UlLd5-97" target="f_3bTo-v71N_Pe8UlLd5-98">
          <mxGeometry relative="1" as="geometry">
            <mxPoint x="325" y="-230" as="sourcePoint" />
            <mxPoint x="325" y="-231" as="targetPoint" />
            <Array as="points" />
          </mxGeometry>
        </mxCell>
        <mxCell id="f_3bTo-v71N_Pe8UlLd5-103" value="mission" style="ellipse;whiteSpace=wrap;html=1;align=center;" vertex="1" parent="1">
          <mxGeometry x="225" y="-310" width="100" height="40" as="geometry" />
        </mxCell>
        <mxCell id="f_3bTo-v71N_Pe8UlLd5-104" value="Name" style="ellipse;whiteSpace=wrap;html=1;align=center;" vertex="1" parent="1">
          <mxGeometry x="75" y="-270" width="100" height="40" as="geometry" />
        </mxCell>
        <mxCell id="f_3bTo-v71N_Pe8UlLd5-105" value="" style="endArrow=none;html=1;rounded=0;entryX=0.5;entryY=0;entryDx=0;entryDy=0;exitX=0.5;exitY=1;exitDx=0;exitDy=0;" edge="1" parent="1" source="f_3bTo-v71N_Pe8UlLd5-103" target="f_3bTo-v71N_Pe8UlLd5-97">
          <mxGeometry relative="1" as="geometry">
            <mxPoint x="-35" y="-140" as="sourcePoint" />
            <mxPoint x="125" y="-140" as="targetPoint" />
          </mxGeometry>
        </mxCell>
        <mxCell id="NgoNU6PQMkb65_Xpgjqk-1" value="Donor" style="whiteSpace=wrap;html=1;align=center;" vertex="1" parent="1">
          <mxGeometry x="700" y="-220" width="100" height="40" as="geometry" />
        </mxCell>
        <mxCell id="NgoNU6PQMkb65_Xpgjqk-2" value="&lt;div style=&quot;background-color: rgb(255, 255, 254); font-family: Consolas, &amp;quot;Courier New&amp;quot;, monospace; font-size: 14px; line-height: 19px; white-space: pre;&quot;&gt;&lt;span style=&quot;color: #a22889;&quot;&gt;email&lt;/span&gt;&lt;/div&gt;" style="ellipse;whiteSpace=wrap;html=1;align=center;" vertex="1" parent="1">
          <mxGeometry x="810" y="-280" width="100" height="40" as="geometry" />
        </mxCell>
        <mxCell id="NgoNU6PQMkb65_Xpgjqk-3" value="&lt;div style=&quot;background-color: rgb(255, 255, 254); font-family: Consolas, &amp;quot;Courier New&amp;quot;, monospace; font-size: 14px; line-height: 19px; white-space: pre;&quot;&gt;&lt;span style=&quot;color: #a22889;&quot;&gt;donor_id&lt;/span&gt;&lt;/div&gt;" style="ellipse;whiteSpace=wrap;html=1;align=center;fontStyle=4;" vertex="1" parent="1">
          <mxGeometry x="610" y="-300" width="100" height="40" as="geometry" />
        </mxCell>
        <mxCell id="NgoNU6PQMkb65_Xpgjqk-4" value="" style="endArrow=none;html=1;rounded=0;entryX=0;entryY=0.5;entryDx=0;entryDy=0;exitX=0.5;exitY=1;exitDx=0;exitDy=0;exitPerimeter=0;" edge="1" parent="1" target="NgoNU6PQMkb65_Xpgjqk-1">
          <mxGeometry relative="1" as="geometry">
            <mxPoint x="620" y="-220" as="sourcePoint" />
            <mxPoint x="690" y="-160" as="targetPoint" />
          </mxGeometry>
        </mxCell>
        <mxCell id="NgoNU6PQMkb65_Xpgjqk-5" value="" style="endArrow=none;html=1;rounded=0;exitX=0.63;exitY=1.05;exitDx=0;exitDy=0;exitPerimeter=0;entryX=0.08;entryY=0.025;entryDx=0;entryDy=0;entryPerimeter=0;" edge="1" parent="1" source="NgoNU6PQMkb65_Xpgjqk-3" target="NgoNU6PQMkb65_Xpgjqk-1">
          <mxGeometry relative="1" as="geometry">
            <mxPoint x="510" y="-180" as="sourcePoint" />
            <mxPoint x="643" y="-180" as="targetPoint" />
          </mxGeometry>
        </mxCell>
        <mxCell id="NgoNU6PQMkb65_Xpgjqk-6" value="" style="endArrow=none;html=1;rounded=0;exitX=0.91;exitY=0.075;exitDx=0;exitDy=0;exitPerimeter=0;" edge="1" parent="1" source="NgoNU6PQMkb65_Xpgjqk-1" target="NgoNU6PQMkb65_Xpgjqk-2">
          <mxGeometry relative="1" as="geometry">
            <mxPoint x="810" y="-220" as="sourcePoint" />
            <mxPoint x="810" y="-221" as="targetPoint" />
            <Array as="points" />
          </mxGeometry>
        </mxCell>
        <mxCell id="NgoNU6PQMkb65_Xpgjqk-7" value="&lt;div style=&quot;background-color: rgb(255, 255, 254); font-family: Consolas, &amp;quot;Courier New&amp;quot;, monospace; font-size: 14px; line-height: 19px; white-space: pre;&quot;&gt;&lt;span style=&quot;color: #a22889;&quot;&gt;address&lt;/span&gt;&lt;/div&gt;" style="ellipse;whiteSpace=wrap;html=1;align=center;" vertex="1" parent="1">
          <mxGeometry x="710" y="-300" width="100" height="40" as="geometry" />
        </mxCell>
        <mxCell id="NgoNU6PQMkb65_Xpgjqk-8" value="&lt;div style=&quot;background-color: rgb(255, 255, 254); font-family: Consolas, &amp;quot;Courier New&amp;quot;, monospace; font-size: 14px; line-height: 19px; white-space: pre;&quot;&gt;&lt;span style=&quot;color: #a22889;&quot;&gt;name&lt;/span&gt;&lt;/div&gt;" style="ellipse;whiteSpace=wrap;html=1;align=center;" vertex="1" parent="1">
          <mxGeometry x="560" y="-260" width="100" height="40" as="geometry" />
        </mxCell>
        <mxCell id="NgoNU6PQMkb65_Xpgjqk-9" value="" style="endArrow=none;html=1;rounded=0;entryX=0.5;entryY=0;entryDx=0;entryDy=0;exitX=0.5;exitY=1;exitDx=0;exitDy=0;" edge="1" parent="1" source="NgoNU6PQMkb65_Xpgjqk-7" target="NgoNU6PQMkb65_Xpgjqk-1">
          <mxGeometry relative="1" as="geometry">
            <mxPoint x="450" y="-130" as="sourcePoint" />
            <mxPoint x="610" y="-130" as="targetPoint" />
          </mxGeometry>
        </mxCell>
        <mxCell id="NgoNU6PQMkb65_Xpgjqk-10" value="&lt;font style=&quot;color: rgb(127, 0, 255); background-color: rgb(255, 255, 255);&quot;&gt;Description&lt;/font&gt;" style="ellipse;whiteSpace=wrap;html=1;align=center;" vertex="1" parent="1">
          <mxGeometry x="-90" y="240" width="100" height="40" as="geometry" />
        </mxCell>
        <mxCell id="NgoNU6PQMkb65_Xpgjqk-11" value="" style="endArrow=none;html=1;rounded=0;entryX=0.691;entryY=0.019;entryDx=0;entryDy=0;exitX=0;exitY=1;exitDx=0;exitDy=0;entryPerimeter=0;" edge="1" parent="1" source="f_3bTo-v71N_Pe8UlLd5-44" target="NgoNU6PQMkb65_Xpgjqk-10">
          <mxGeometry relative="1" as="geometry">
            <mxPoint x="50" y="330" as="sourcePoint" />
            <mxPoint x="120" y="280" as="targetPoint" />
          </mxGeometry>
        </mxCell>
        <mxCell id="NgoNU6PQMkb65_Xpgjqk-12" value="&lt;div style=&quot;background-color: rgb(255, 255, 254); font-family: Consolas, &amp;quot;Courier New&amp;quot;, monospace; font-size: 14px; line-height: 19px; white-space: pre;&quot;&gt;&lt;span style=&quot;color: #a22889;&quot;&gt;charity&lt;/span&gt;&lt;/div&gt;&lt;div style=&quot;background-color: rgb(255, 255, 254); font-family: Consolas, &amp;quot;Courier New&amp;quot;, monospace; font-size: 14px; line-height: 19px; white-space: pre;&quot;&gt;&lt;span style=&quot;color: #a22889;&quot;&gt;item id&lt;/span&gt;&lt;/div&gt;" style="ellipse;whiteSpace=wrap;html=1;align=center;" vertex="1" parent="1">
          <mxGeometry x="-180" y="210" width="100" height="55" as="geometry" />
        </mxCell>
        <mxCell id="NgoNU6PQMkb65_Xpgjqk-13" value="" style="endArrow=none;html=1;rounded=0;entryX=0.656;entryY=0.065;entryDx=0;entryDy=0;entryPerimeter=0;exitX=0;exitY=0.75;exitDx=0;exitDy=0;" edge="1" parent="1" target="NgoNU6PQMkb65_Xpgjqk-12" source="f_3bTo-v71N_Pe8UlLd5-44">
          <mxGeometry relative="1" as="geometry">
            <mxPoint x="20" y="230" as="sourcePoint" />
            <mxPoint x="-60" y="290" as="targetPoint" />
          </mxGeometry>
        </mxCell>
        <mxCell id="NgoNU6PQMkb65_Xpgjqk-14" value="&lt;div style=&quot;background-color: rgb(255, 255, 254); font-family: Consolas, &amp;quot;Courier New&amp;quot;, monospace; font-size: 14px; line-height: 19px; white-space: pre;&quot;&gt;&lt;span style=&quot;color: #a22889;&quot;&gt;phone_number&lt;/span&gt;&lt;/div&gt;" style="ellipse;whiteSpace=wrap;html=1;align=center;" vertex="1" parent="1">
          <mxGeometry x="860" y="-230" width="100" height="40" as="geometry" />
        </mxCell>
        <mxCell id="NgoNU6PQMkb65_Xpgjqk-15" value="" style="endArrow=none;html=1;rounded=0;exitX=0;exitY=0.5;exitDx=0;exitDy=0;entryX=1;entryY=0.75;entryDx=0;entryDy=0;" edge="1" parent="1" source="NgoNU6PQMkb65_Xpgjqk-14" target="NgoNU6PQMkb65_Xpgjqk-1">
          <mxGeometry relative="1" as="geometry">
            <mxPoint x="560" y="170" as="sourcePoint" />
            <mxPoint x="730" y="150" as="targetPoint" />
          </mxGeometry>
        </mxCell>
      </root>
    </mxGraphModel>
  </diagram>
  <diagram id="dWYtGDEdXqDuOHVwFrsc" name="Page-2">
    <mxGraphModel dx="880" dy="468" grid="1" gridSize="10" guides="1" tooltips="1" connect="1" arrows="1" fold="1" page="1" pageScale="1" pageWidth="850" pageHeight="1100" math="0" shadow="0">
      <root>
        <mxCell id="0" />
        <mxCell id="1" parent="0" />
      </root>
    </mxGraphModel>
  </diagram>
</mxfile>
